<svg xmlns="http://www.w3.org/2000/svg" viewBox="0 0 700 700">
<!-- Lychee Slicer mark, rebuilt on transparency: Mango3D only ships it
     flat on their dark tile (apple-touch-icon), but their safari-pinned-tab
     mask carries the exact vectors — bud and leaf recolored to the brand
     colors sampled from the tile. -->
<g transform="translate(0,700) scale(0.1,-0.1)" stroke="none">
<path fill="#ef7868" d="M3674 6991 c-11 -5 -72 -64 -135 -131 -219 -235 -224 -240 -252 -241
-15 -1 -30 -2 -34 -3 -5 -1 -29 -5 -54 -9 -78 -13 -91 -16 -209 -47 -63 -17
-124 -32 -134 -35 -10 -2 -34 -9 -51 -15 -30 -10 -52 -3 -245 74 -117 47 -228
88 -248 91 -41 6 -110 -23 -130 -55 -13 -22 -35 -85 -112 -328 -43 -137 -55
-165 -78 -179 -57 -36 -226 -167 -300 -232 l-77 -68 -140 -7 c-315 -14 -360
-18 -401 -36 -52 -22 -84 -81 -78 -143 4 -39 40 -303 49 -357 21 -121 19 -136
-21 -207 -39 -68 -130 -252 -153 -308 -9 -23 -32 -41 -99 -76 -451 -236 -444
-231 -445 -318 -1 -41 7 -58 64 -146 210 -320 243 -371 242 -385 -1 -8 -4
-104 -7 -213 l-6 -198 -67 -87 c-246 -318 -275 -360 -280 -405 -6 -49 12 -93
49 -120 27 -21 389 -247 394 -247 2 0 20 -11 40 -25 31 -21 44 -42 84 -142 26
-65 63 -152 82 -192 34 -73 34 -76 22 -130 -7 -31 -15 -68 -18 -84 -3 -15 -7
-35 -10 -45 -3 -9 -7 -28 -10 -42 -2 -14 -18 -90 -36 -170 -34 -159 -34 -192
6 -239 28 -33 63 -47 144 -56 30 -4 66 -8 80 -10 46 -7 104 -14 156 -20 28 -3
59 -7 70 -9 11 -2 51 -7 89 -11 38 -3 72 -8 76 -11 3 -2 24 24 45 59 266 434
594 807 949 1078 206 157 463 305 735 421 94 41 289 118 315 125 6 2 111 37
235 79 124 41 232 77 240 79 24 6 462 156 495 170 17 7 89 36 160 66 329 134
644 326 885 540 147 130 330 329 430 467 24 34 48 62 52 62 5 0 8 4 8 9 0 5
26 47 57 93 193 279 302 528 353 808 6 30 12 65 14 77 7 35 19 166 18 191 -3
38 -29 79 -67 102 -29 18 -54 22 -162 26 -71 3 -166 6 -213 8 -47 3 -101 5
-120 5 -25 1 -46 12 -76 39 -96 86 -186 156 -325 250 l-77 52 -74 228 -75 227
-46 31 c-53 36 -98 38 -169 5 -24 -10 -116 -49 -206 -86 l-162 -68 -118 31
c-159 43 -416 91 -443 84 -4 0 -71 67 -150 150 -175 185 -199 208 -213 209 -6
0 -29 2 -51 4 -22 3 -49 1 -61 -4z"/>
<path fill="#a4d092" d="M6710 4267 c-232 -354 -471 -630 -745 -863 -82 -69 -260 -204 -270
-204 -3 0 -11 -5 -18 -11 -39 -34 -205 -131 -357 -208 -255 -129 -437 -200
-885 -348 -494 -162 -648 -215 -740 -258 -16 -7 -55 -23 -85 -35 -89 -35 -337
-162 -440 -225 -572 -353 -998 -874 -1373 -1682 -26 -56 -47 -106 -47 -110 0
-4 21 -21 48 -37 62 -39 395 -208 452 -230 25 -10 67 -27 93 -37 l48 -19 27
62 c161 372 395 760 603 999 135 155 332 330 463 409 l38 23 -51 -64 c-176
-217 -312 -476 -371 -709 -28 -109 -38 -230 -19 -231 8 0 21 -2 29 -4 87 -20
225 -42 325 -51 27 -2 75 -7 105 -10 62 -6 384 -6 445 0 22 2 72 7 110 10 91
9 243 33 325 52 36 9 72 17 80 19 57 12 88 21 190 52 768 234 1416 756 1820
1466 136 240 260 560 315 809 26 121 45 224 51 278 3 36 8 67 9 70 7 12 19
233 19 350 0 121 -10 329 -19 380 -5 34 -13 85 -21 145 -3 28 -8 53 -10 56 -2
3 -6 21 -9 40 -9 59 -47 214 -54 221 -4 5 -40 -43 -81 -105z"/>
</g>
</svg>
